<?xml version="1.0" encoding="UTF-8"?>
<svg xmlns="http://www.w3.org/2000/svg" xmlns:xlink="http://www.w3.org/1999/xlink" width="118px" height="22px" viewBox="0 0 118 22" version="1.1">
<g id="surface1">
<path style=" stroke:none;fill-rule:nonzero;fill:rgb(0%,60%,100%);fill-opacity:1;" d="M 0 13.199219 L 2.8125 12.101562 C 5.621094 11 11.226562 8.800781 16.878906 8.800781 C 22.476562 8.800781 28.105469 11 33.679688 13.5625 C 39.332031 16.15625 44.988281 19.042969 50.558594 17.601562 C 56.1875 16.15625 61.785156 10.242188 67.441406 9.164062 C 73.046875 8.042969 78.667969 11.757812 84.320312 12.835938 C 89.902344 13.957031 95.546875 12.445312 101.121094 12.101562 C 106.765625 11.757812 112.347656 12.445312 115.214844 12.835938 L 118 13.199219 L 118 22 L 115.1875 22 C 112.378906 22 106.773438 22 101.121094 22 C 95.523438 22 89.894531 22 84.320312 22 C 78.667969 22 73.011719 22 67.441406 22 C 61.8125 22 56.214844 22 50.558594 22 C 44.953125 22 39.332031 22 33.679688 22 C 28.097656 22 22.453125 22 16.878906 22 C 11.234375 22 5.652344 22 2.785156 22 L 0 22 Z M 0 13.199219 "/>
</g>
</svg>
